<svg version="1.2" xmlns="http://www.w3.org/2000/svg" viewBox="0 0 1280 1280" width="1280" height="1280">
	<defs>
		<linearGradient id="gradient" x1="0.21" y1="0.91" x2="0.79" y2="0.09">
			<stop offset="0%" stop-color="#ff9019"/>
			<stop offset="16.33%" stop-color="#ff7400"/>
			<stop offset="49%" stop-color="#ff0039"/>
			<stop offset="66%" stop-color="#fa0096"/>
			<stop offset="100%" stop-color="#ea00fb"/>
		</linearGradient>
	</defs>
	<g id="neon">
		<path id="bg" style="fill: #ffffff" fill-rule="evenodd" d="m171.85 0h936.3c94.91 0 171.85 76.94 171.85 171.85v936.3c0 94.91-76.94 171.85-171.85 171.85h-936.3c-94.91 0-171.85-76.94-171.85-171.85v-936.3c0-94.91 76.94-171.85 171.85-171.85z"/>
		<path id="neon" style="fill: url(#gradient)" fill-rule="evenodd" d="m378.8 672.4q225.72 0 225.73 242.62-0.01 241.73-225.73 241.72-226.64 0.01-226.63-241.72-0.01-242.62 226.63-242.62zm106.01 349.87q24.68-32.98 24.68-107.25 0-74.24-24.68-107.24-30.16-41.26-106.01-41.26-75.85 0-106 41.26-24.68 33-24.68 107.24 0 74.27 24.68 107.25 30.15 40.35 106 40.34 75.85 0.01 106.01-40.34zm642.44 134.47h-95.04v-242.17q0-74.02-24.67-106.92-30.16-41.13-106.01-41.13-75.86 0-106.92 41.13-24.68 32.9-24.68 106.92v242.17h-95.04v-241.72q0-242.62 226.64-242.62 225.71 0 225.72 242.62zm-522.02-549.42h-95.04v-242.17q0-74.03-24.67-106.92-30.16-41.13-106.01-41.13-75.86 0-106.92 41.13-24.67 32.89-24.67 106.92v242.17h-95.04v-241.72q-0.01-242.63 226.63-242.63 225.72 0 225.72 242.63zm520.9 0h-225.72q-226.64 0.01-226.64-241.71 0-242.63 226.64-242.63 225.71 0 225.72 242.31v47.38h-354.57q14.6 100.53 128.85 100.53h225.72zm-97.78-288.78q-14.63-101.44-127.94-101.44-114.25 0-128.85 101.44z"/>
	</g>
</svg>
